<?xml version="1.0" standalone="no"?>
<!DOCTYPE svg PUBLIC "-//W3C//DTD SVG 20010904//EN"
 "http://www.w3.org/TR/2001/REC-SVG-20010904/DTD/svg10.dtd">
<svg version="1.0" xmlns="http://www.w3.org/2000/svg"
 width="1800.000000pt" height="1800.000000pt" viewBox="0 0 1800.000000 1800.000000"
 preserveAspectRatio="xMidYMid meet">

<g transform="translate(0.000000,1800.000000) scale(0.100000,-0.100000)"
fill="#000000" stroke="none">
<path d="M7875 14460 c-504 -91 -827 -296 -1075 -679 -361 -560 -333 -530
-873 -914 -299 -213 -420 -310 -553 -442 -267 -266 -447 -583 -499 -879 -31
-181 -14 -398 47 -581 55 -165 149 -329 422 -738 430 -644 458 -724 486 -1352
20 -451 36 -560 114 -745 76 -178 243 -375 436 -513 126 -89 325 -188 485
-240 118 -38 130 -44 133 -67 2 -14 -63 -711 -142 -1550 -80 -839 -157 -1651
-170 -1805 -14 -154 -28 -301 -30 -327 -3 -27 -1 -48 4 -48 15 0 482 217 1230
573 272 129 624 296 782 371 157 75 291 136 296 136 5 0 189 -88 408 -196
1369 -673 2015 -986 2022 -979 7 7 -1 60 -268 1825 -299 1973 -285 1879 -274
1890 5 5 44 19 87 29 154 40 388 154 612 299 244 158 379 306 490 537 88 185
144 378 230 802 30 149 69 315 86 370 62 194 154 342 386 620 169 202 248 333
311 513 53 150 66 237 67 425 0 249 -23 352 -127 559 -85 170 -161 269 -433
561 -170 182 -253 282 -278 330 -27 53 -47 150 -78 369 -53 380 -89 523 -176
687 -168 320 -456 520 -899 626 -117 27 -124 28 -419 28 -229 0 -339 -5 -465
-19 -91 -11 -219 -19 -285 -19 -194 0 -281 29 -720 243 -297 144 -446 210
-569 249 -174 56 -215 62 -461 66 -199 4 -245 2 -340 -15z m580 -794 c44 -15
222 -97 397 -181 430 -210 561 -263 768 -312 145 -34 406 -42 645 -19 468 46
627 43 799 -15 198 -66 283 -149 321 -314 9 -37 32 -172 51 -299 58 -386 103
-546 198 -703 65 -108 136 -194 357 -433 208 -226 290 -328 325 -405 34 -73
47 -171 34 -252 -21 -131 -73 -223 -243 -430 -240 -293 -322 -418 -413 -629
-73 -167 -114 -313 -179 -635 -109 -537 -165 -692 -286 -791 -100 -82 -379
-234 -480 -261 -156 -44 -319 -23 -864 108 -519 125 -780 165 -1080 165 -265
0 -425 -19 -980 -114 -346 -60 -452 -70 -573 -56 -53 7 -125 21 -161 32 -132
41 -290 135 -364 217 -85 94 -104 172 -117 481 -25 588 -52 762 -159 1036 -99
254 -179 388 -612 1029 -118 174 -175 289 -196 392 -16 74 -16 84 0 146 26
105 95 235 184 346 105 132 226 232 598 496 315 224 413 302 550 440 121 120
223 250 329 420 174 277 234 361 288 402 77 58 133 88 220 117 132 44 217 56
398 52 149 -2 173 -5 245 -30z m118 -6263 c10 -98 8 -2126 -1 -2140 -13 -21
-1025 -503 -1088 -519 l-27 -7 7 54 c6 51 59 594 192 1954 31 319 58 582 59
584 8 7 186 40 455 85 151 25 286 47 300 49 14 2 41 5 61 6 l36 1 6 -67z m875
-3 c129 -29 541 -128 625 -151 24 -6 41 -18 46 -33 24 -60 396 -2465 389
-2507 -2 -14 -58 10 -288 122 -157 77 -430 210 -607 297 l-323 157 0 666 c0
366 -3 849 -7 1072 -6 376 -5 407 10 407 10 0 79 -14 155 -30z"/>
<path d="M8790 12530 c-673 -70 -1265 -544 -1489 -1195 -70 -200 -86 -306 -86
-555 0 -185 3 -231 23 -328 48 -236 131 -439 257 -627 372 -555 969 -848 1622
-797 170 14 280 36 431 88 684 233 1147 844 1197 1579 18 254 -58 611 -180
856 -234 466 -655 805 -1160 933 -170 43 -445 63 -615 46z m400 -556 c255 -53
441 -148 619 -318 334 -320 455 -810 311 -1259 -124 -386 -427 -676 -825 -792
-218 -63 -534 -48 -747 36 -381 150 -669 490 -754 888 -19 91 -19 407 1 498
70 329 273 617 559 794 136 84 314 145 491 168 87 12 246 5 345 -15z"/>
<path d="M8460 10835 l0 -815 600 0 600 0 0 200 0 200 -362 2 -363 3 -3 613
-2 612 -235 0 -235 0 0 -815z"/>
<path d="M14193 7783 c-369 -423 -745 -713 -1263 -972 -430 -214 -825 -337
-1384 -432 -99 -16 -182 -32 -184 -34 -5 -4 44 -448 54 -498 7 -33 -11 -34
254 9 903 148 1688 489 2363 1025 156 124 377 335 499 477 86 100 165 209 157
216 -21 19 -418 276 -427 276 -6 0 -37 -30 -69 -67z"/>
<path d="M5455 7659 c-271 -43 -543 -105 -775 -175 -609 -185 -1166 -481
-1580 -840 -109 -94 -370 -356 -370 -370 0 -21 64 -73 297 -242 l112 -82 138
131 c302 287 581 479 953 657 373 179 751 294 1235 377 83 14 162 28 178 31
26 5 27 8 27 67 0 69 -24 291 -43 395 -15 80 -7 78 -172 51z"/>
<path d="M14374 6073 c-82 -107 -417 -443 -534 -537 -116 -93 -369 -260 -522
-345 -450 -251 -945 -413 -1543 -507 -60 -9 -115 -22 -122 -28 -8 -8 -4 -72
20 -265 l31 -253 66 6 c160 15 430 67 675 131 788 205 1469 572 1982 1069 142
137 326 342 421 468 44 59 51 73 40 84 -17 17 -426 264 -438 264 -4 0 -39 -39
-76 -87z"/>
<path d="M5985 6023 c-112 -14 -425 -70 -552 -99 -857 -192 -1631 -557 -2199
-1040 -84 -70 -318 -294 -312 -298 2 -1 94 -77 206 -169 l203 -168 126 116
c385 352 862 636 1408 838 349 129 681 211 1090 271 250 37 228 30 222 74 -4
20 -16 129 -27 242 -11 113 -23 213 -26 223 -4 14 -16 17 -57 16 -29 -1 -65
-4 -82 -6z"/>
<path d="M14562 4388 c-103 -120 -363 -374 -472 -461 -469 -374 -1027 -650
-1640 -811 -666 -175 -1264 -199 -1865 -76 -369 76 -815 224 -1385 460 -312
129 -401 163 -411 153 -11 -11 -199 -448 -199 -462 0 -16 141 -81 439 -200
845 -340 1289 -469 1841 -538 181 -22 707 -25 900 -5 594 62 1126 207 1664
453 521 239 968 549 1352 941 118 120 304 337 304 354 0 8 -423 284 -436 284
-7 0 -48 -42 -92 -92z"/>
<path d="M5790 4280 c-637 -109 -1209 -303 -1675 -569 -156 -89 -401 -254
-530 -358 -113 -90 -357 -322 -427 -406 -35 -41 -38 -49 -27 -64 13 -16 324
-250 381 -287 l27 -17 148 143 c168 161 239 221 400 336 272 195 610 364 975
490 250 87 605 174 833 206 188 27 175 23 175 59 0 36 -47 440 -55 475 -7 28
-15 28 -225 -8z"/>
</g>
</svg>
