<?xml version="1.0" standalone="no"?>
<!DOCTYPE svg PUBLIC "-//W3C//DTD SVG 20010904//EN"
 "http://www.w3.org/TR/2001/REC-SVG-20010904/DTD/svg10.dtd">
<svg version="1.0" xmlns="http://www.w3.org/2000/svg"
 width="1400.000000pt" height="1400.000000pt" viewBox="0 0 1400.000000 1400.000000"
 preserveAspectRatio="xMidYMid meet">
<metadata>
Created by potrace 1.16, written by Peter Selinger 2001-2019
</metadata>
<g transform="translate(0.000000,1400.000000) scale(0.100000,-0.100000)"
fill="#000000" stroke="none">
<path d="M6225 13104 c-620 -92 -936 -277 -1215 -708 -235 -363 -271 -416
-339 -488 -95 -102 -169 -160 -495 -392 -339 -242 -452 -332 -591 -471 -256
-257 -425 -548 -491 -847 -23 -105 -23 -346 0 -458 53 -248 124 -387 450 -874
447 -668 469 -728 501 -1386 8 -173 20 -358 25 -409 13 -116 73 -304 133 -413
156 -286 484 -537 861 -659 72 -24 136 -47 143 -53 9 -8 -23 -377 -137 -1571
-173 -1813 -205 -2173 -198 -2181 9 -8 437 191 1688 786 338 161 620 293 625
293 6 0 330 -156 720 -348 1507 -738 1715 -839 1722 -831 6 5 10 -23 -277
1871 -126 831 -240 1584 -253 1675 -16 107 -22 169 -15 177 5 6 28 15 51 18
100 17 325 116 513 226 335 197 500 360 624 622 91 189 144 377 234 822 96
471 147 580 441 935 159 193 230 295 284 411 88 190 121 348 121 574 0 227
-23 337 -110 521 -83 178 -177 300 -478 624 -191 204 -244 275 -271 357 -12
35 -37 174 -56 311 -55 381 -87 507 -170 672 -169 337 -499 563 -950 650 -203
39 -518 37 -900 -5 -248 -28 -383 -16 -550 47 -44 17 -213 95 -375 173 -591
286 -705 322 -1055 329 -99 3 -193 2 -210 0z m401 -810 c75 -19 238 -91 474
-209 366 -183 608 -276 805 -311 139 -25 417 -23 695 5 337 33 521 28 670 -21
152 -49 250 -119 295 -212 31 -63 46 -133 85 -401 71 -484 127 -635 320 -876
28 -34 137 -156 242 -270 298 -324 346 -398 355 -549 10 -154 -51 -292 -214
-485 -189 -225 -298 -377 -377 -525 -116 -221 -168 -387 -260 -845 -81 -399
-143 -583 -228 -681 -73 -84 -416 -278 -548 -310 -49 -13 -91 -15 -170 -11
-131 7 -184 18 -662 128 -889 204 -1122 213 -1948 69 -416 -72 -504 -83 -630
-77 -72 3 -142 13 -188 26 -207 60 -399 194 -454 318 -34 77 -48 196 -58 495
-14 400 -46 616 -124 848 -97 282 -176 420 -635 1099 -192 284 -239 422 -195
572 20 66 61 149 74 149 6 0 10 8 10 19 0 10 18 45 39 77 102 152 258 288 646
561 382 270 542 406 687 587 75 92 133 178 348 512 84 130 140 183 252 240 82
42 217 81 318 94 99 12 301 4 376 -16z m159 -6226 c10 -33 18 -2040 8 -2123
l-8 -70 -326 -155 c-180 -86 -425 -201 -545 -257 -209 -97 -219 -100 -222 -78
-2 12 13 182 32 376 20 195 74 752 121 1239 47 487 88 899 91 917 l6 31 136
26 c152 28 635 109 688 115 7 0 15 -9 19 -21z m985 -78 c329 -75 543 -130 557
-143 18 -19 156 -880 342 -2132 28 -187 53 -352 56 -367 3 -22 1 -26 -13 -21
-9 4 -282 136 -607 295 l-590 288 -3 1069 c-2 1015 -1 1069 15 1065 10 -2 119
-26 243 -54z"/>
<path d="M6929 11145 c-261 -42 -498 -136 -717 -281 -138 -92 -333 -278 -437
-415 -504 -669 -466 -1585 93 -2215 257 -290 582 -478 972 -566 95 -21 128
-23 355 -23 220 1 262 3 353 23 444 97 816 334 1080 690 300 405 408 916 300
1421 -92 431 -368 832 -748 1086 -191 128 -443 230 -670 270 -132 23 -466 29
-581 10z m417 -546 c170 -23 362 -94 495 -181 348 -229 550 -598 552 -1008 1
-153 -12 -243 -55 -380 -120 -376 -411 -667 -788 -788 -273 -87 -594 -65 -857
58 -268 125 -497 369 -609 645 -68 169 -78 228 -78 455 0 215 3 240 56 395
122 358 433 657 793 764 161 48 335 62 491 40z"/>
<path d="M6680 9455 l0 -815 600 0 600 0 0 205 0 205 -355 0 -355 0 0 610 0
610 -245 0 -245 0 0 -815z"/>
<path d="M12369 6363 c-230 -264 -466 -467 -784 -676 -314 -205 -605 -348
-961 -470 -285 -98 -479 -146 -827 -207 -120 -20 -219 -39 -222 -41 -2 -2 10
-116 26 -254 16 -137 29 -256 29 -262 0 -20 61 -16 262 18 950 159 1759 519
2441 1087 240 200 577 567 577 629 0 12 -410 293 -429 293 -6 0 -56 -53 -112
-117z"/>
<path d="M3675 6284 c-784 -125 -1436 -368 -2004 -746 -205 -136 -339 -246
-539 -442 -212 -209 -210 -204 -120 -276 93 -75 336 -250 347 -250 6 0 68 55
138 122 227 215 387 339 629 486 436 263 947 446 1534 547 113 20 213 38 223
41 23 7 22 44 -3 259 -22 186 -39 285 -49 284 -3 0 -73 -12 -156 -25z"/>
<path d="M12567 4673 c-112 -139 -383 -408 -523 -519 -381 -303 -878 -555
-1381 -699 -196 -57 -372 -96 -610 -136 -192 -32 -193 -33 -193 -58 0 -39 59
-503 64 -508 2 -3 71 5 153 17 756 110 1464 373 2031 752 326 218 597 462 862
779 116 139 154 193 147 212 -4 11 -436 277 -450 277 -2 0 -47 -53 -100 -117z"/>
<path d="M4115 4635 c-1160 -173 -2168 -631 -2847 -1293 l-137 -134 211 -174
210 -174 107 99 c295 274 582 468 991 670 478 236 967 380 1595 471 83 12 152
24 154 26 3 2 -1 61 -8 132 -27 275 -42 386 -54 394 -17 11 -44 9 -222 -17z"/>
<path d="M12777 3013 c-117 -136 -383 -392 -508 -489 -617 -480 -1322 -770
-2204 -906 -136 -21 -183 -23 -500 -22 -313 0 -365 2 -495 23 -503 78 -938
213 -1670 516 -281 116 -357 145 -380 145 -13 0 -35 -38 -84 -150 -101 -229
-137 -320 -132 -329 13 -21 292 -139 696 -296 787 -305 1271 -425 1844 -455
790 -41 1638 139 2402 509 511 249 911 533 1280 912 106 109 295 334 293 349
-1 9 -436 290 -450 290 -4 0 -46 -44 -92 -97z"/>
<path d="M4180 2933 c-463 -77 -733 -140 -1040 -243 -522 -174 -953 -404
-1353 -723 -107 -85 -326 -293 -409 -390 -44 -50 -49 -59 -37 -74 8 -9 104
-84 213 -165 l200 -148 35 32 c20 18 88 83 151 144 489 471 1156 799 1955 964
88 18 342 59 370 60 36 1 36 12 10 243 -36 322 -32 311 -95 300z"/>
</g>
</svg>
